<mxfile host="app.diagrams.net" modified="2023-05-25T07:40:33.746Z" agent="Mozilla/5.0 (Windows NT 10.0; Win64; x64) AppleWebKit/537.36 (KHTML, like Gecko) Chrome/113.0.0.0 Safari/537.36" etag="PqfO0imY_Cgo_DZSGj0V" version="21.3.3" type="github">
  <diagram name="Page-1" id="3o2vc8Ed8rGV-0K5mSe6">
    <mxGraphModel dx="1434" dy="834" grid="1" gridSize="10" guides="1" tooltips="1" connect="1" arrows="1" fold="1" page="1" pageScale="1" pageWidth="850" pageHeight="1100" math="0" shadow="0">
      <root>
        <mxCell id="0" />
        <mxCell id="1" parent="0" />
        <mxCell id="55XNli-dt9qAcxt_UE54-1" value="" style="rounded=0;whiteSpace=wrap;html=1;" parent="1" vertex="1">
          <mxGeometry x="221.25" y="200" width="337.5" height="160" as="geometry" />
        </mxCell>
        <mxCell id="lDlZ_jMuD0TPJMl0hpm0-3" style="edgeStyle=orthogonalEdgeStyle;rounded=0;orthogonalLoop=1;jettySize=auto;html=1;" parent="1" source="lDlZ_jMuD0TPJMl0hpm0-2" target="55XNli-dt9qAcxt_UE54-1" edge="1">
          <mxGeometry relative="1" as="geometry" />
        </mxCell>
        <mxCell id="lDlZ_jMuD0TPJMl0hpm0-2" value="Start" style="ellipse;whiteSpace=wrap;html=1;" parent="1" vertex="1">
          <mxGeometry x="330" y="40" width="120" height="80" as="geometry" />
        </mxCell>
      </root>
    </mxGraphModel>
  </diagram>
</mxfile>
